<?xml version="1.0" encoding="UTF-8"?><svg id="Layer_1" xmlns="http://www.w3.org/2000/svg" viewBox="0 0 72 72"><defs><style>.cls-1{fill:#fff;}.cls-2{fill:#ed1c24;}</style></defs><path class="cls-2" d="M68.69,23.11l.06,25.21c0,3.88-2.03,7.48-5.37,9.47l-21.29,12.67c-3.35,2-7.51,2.06-10.92,.18l-22.25-12.26c-3.51-1.93-5.68-5.62-5.68-9.62V23.6c0-3.87,2.04-7.46,5.37-9.44L29.81,1.55c3.34-1.98,7.47-2.06,10.88-.2l22.28,12.15c3.52,1.92,5.72,5.61,5.73,9.62Z"/><path class="cls-1" d="M37.6,43.59s-.26-8.09,0-9.96c3.11-.13,9.24-3.02,9.24-3.02,0,0,.3,1.3,.62,3.51-2.82,2.98-6.71,3.51-6.71,3.51l-1.11,22.02s8.02-4.97,8.88-11.59c1.42-11.86,1.42-20.91,1.42-20.91,0,0,1.02-2.8-2.71-8.35-3.68-5.48-11.29-8.53-11.5-8.61h0s0,0,0,0c0,0,0,0,0,0h0c-.21,.08-7.82,3.14-11.5,8.61-3.73,5.55-2.71,8.35-2.71,8.35,0,0,0,9.06,1.42,20.91,.87,6.62,8.88,11.59,8.88,11.59l-1.11-22.02s-3.89-.53-6.71-3.51c.32-2.21,.62-3.51,.62-3.51,0,0,6.13,2.89,9.24,3.02,.27,1.88,.13,9.96,.13,9.96h3.59Z"/></svg>