<?xml version="1.0" encoding="UTF-8"?><svg id="Layer_2" xmlns="http://www.w3.org/2000/svg" viewBox="0 0 65.5 72"><defs><style>.cls-1{fill:#fff;}.cls-2{fill:#ed1c24;}.cls-3{fill:none;stroke:#fff;stroke-miterlimit:10;stroke-width:4px;}</style></defs><g id="Layer_1-2"><g><path class="cls-2" d="M65.45,23.11l.06,25.21c0,3.88-2.03,7.48-5.37,9.47l-21.29,12.67c-3.35,2-7.51,2.06-10.92,.18L5.68,58.37c-3.51-1.93-5.68-5.62-5.68-9.62V23.6c0-3.87,2.04-7.46,5.37-9.44L26.56,1.55c3.34-1.98,7.47-2.06,10.88-.2l22.28,12.15c3.52,1.92,5.72,5.61,5.73,9.62Z"/><circle class="cls-3" cx="32.75" cy="35.61" r="18.8"/><g><path class="cls-1" d="M32.75,25.55c-4.8,0-8.7-3.9-8.7-8.7s3.9-8.7,8.7-8.7,8.7,3.9,8.7,8.7-3.9,8.7-8.7,8.7Z"/><path class="cls-2" d="M32.75,9.65c3.98,0,7.2,3.22,7.2,7.2s-3.22,7.2-7.2,7.2-7.2-3.22-7.2-7.2,3.22-7.2,7.2-7.2m0-3c-5.62,0-10.2,4.58-10.2,10.2s4.58,10.2,10.2,10.2,10.2-4.58,10.2-10.2-4.58-10.2-10.2-10.2h0Z"/></g><g><path class="cls-1" d="M16.42,53.61c-4.8,0-8.7-3.9-8.7-8.7s3.9-8.7,8.7-8.7,8.7,3.9,8.7,8.7-3.9,8.7-8.7,8.7Z"/><path class="cls-2" d="M16.42,37.71c3.98,0,7.2,3.22,7.2,7.2s-3.22,7.2-7.2,7.2-7.2-3.22-7.2-7.2,3.22-7.2,7.2-7.2m0-3c-5.62,0-10.2,4.58-10.2,10.2s4.58,10.2,10.2,10.2,10.2-4.58,10.2-10.2-4.58-10.2-10.2-10.2h0Z"/></g><g><path class="cls-1" d="M49.09,53.6c-4.8,0-8.7-3.9-8.7-8.7s3.9-8.7,8.7-8.7,8.7,3.9,8.7,8.7-3.9,8.7-8.7,8.7Z"/><path class="cls-2" d="M49.09,37.7c3.98,0,7.2,3.22,7.2,7.2s-3.22,7.2-7.2,7.2-7.2-3.22-7.2-7.2,3.22-7.2,7.2-7.2m0-3c-5.62,0-10.2,4.58-10.2,10.2s4.58,10.2,10.2,10.2,10.2-4.58,10.2-10.2-4.58-10.2-10.2-10.2h0Z"/></g></g></g></svg>